C:\Users\u0150099\Documents\PredSim_dev\Subjects\test_1\MuscleAnalysis\dummy_motion.mot
version=1
nRows=10
nColumns=32
inDegrees=no
endheader
                time	         pelvis_tilt	         pelvis_list	     pelvis_rotation	           pelvis_tx	           pelvis_ty	           pelvis_tz	       hip_flexion_l	     hip_adduction_l	      hip_rotation_l	       hip_flexion_r	     hip_adduction_r	      hip_rotation_r	        knee_angle_l	        knee_angle_r	       ankle_angle_l	       ankle_angle_r	    subtalar_angle_l	    subtalar_angle_r	         mtp_angle_l	         mtp_angle_r	    lumbar_extension	      lumbar_bending	     lumbar_rotation	          arm_flex_l	           arm_add_l	           arm_rot_l	          arm_flex_r	           arm_add_r	           arm_rot_r	        elbow_flex_l	        elbow_flex_r	
          0.01000000	          0.00000000	          0.00000000	          0.00000000	          0.00000000	          0.00000000	          0.00000000	         -0.05540161	         -0.27553744	          0.19016057	          0.65907640	         -0.27513508	          0.49479354	         -0.31245415	         -0.49289531	          0.11041869	          0.37577705	          0.27703252	         -0.08198217	          0.60091792	          0.61513741	          0.49093249	          0.26166504	         -0.49360432	         -0.40162335	          0.26260101	         -0.34363804	         -0.49375836	          0.05196395	          0.46218696	         -0.46113251	          0.32148539	
          0.02000000	          0.00000000	          0.00000000	          0.00000000	          0.00000000	          0.00000000	          0.00000000	         -0.84029571	         -0.35134249	          0.34287601	         -0.06519918	          0.10245259	         -0.44491538	         -1.11007332	         -1.13376962	         -0.38501733	         -0.48198715	          0.00300977	         -0.17737302	         -0.01541794	         -0.12698304	         -0.01874300	         -0.14992949	          0.35412688	          0.48983080	         -0.07275334	         -0.44300468	         -0.40381847	         -0.26070971	         -0.38485687	         -0.01277796	         -0.35594454	
          0.03000000	          0.00000000	          0.00000000	          0.00000000	          0.00000000	          0.00000000	          0.00000000	          0.38587947	          0.41919284	         -0.03878429	          0.15926123	         -0.51423369	          0.37158352	         -0.77587888	         -0.02861065	         -0.52237379	         -0.39275354	         -0.03628003	          0.41785253	          0.66826531	          0.49403871	         -0.24493487	          0.41913450	         -0.35010829	         -0.26727221	          0.00285530	          0.03025055	         -0.23891893	         -0.19656408	         -0.24724565	         -0.34227011	         -0.42384289	
          0.04000000	          0.00000000	          0.00000000	          0.00000000	          0.00000000	          0.00000000	          0.00000000	          0.54938359	         -0.02347518	          0.01659179	          0.76094321	          0.23032496	          0.29031323	         -1.25949238	         -0.63488758	          0.23385687	          0.04361230	         -0.51171768	          0.22585817	         -0.28522948	          0.81282869	         -0.44088542	         -0.39915009	         -0.09802055	         -0.20725392	          0.17511709	          0.35347390	         -0.18127522	         -0.45585994	         -0.16967516	          0.28715768	          0.17358624	
          0.05000000	          0.00000000	          0.00000000	          0.00000000	          0.00000000	          0.00000000	          0.00000000	          0.78441439	         -0.17304427	         -0.49576737	         -0.55512237	         -0.07810497	          0.02047799	         -0.42157638	         -0.95927615	          0.48833971	         -0.05778358	          0.47598324	          0.00813337	         -0.18092109	          0.72688221	          0.36545597	          0.05386243	          0.51053247	          0.36135557	         -0.50661356	          0.46175038	          0.29973277	          0.47653316	         -0.50382254	          0.48886687	         -0.18178995	
          0.06000000	          0.00000000	          0.00000000	          0.00000000	          0.00000000	          0.00000000	          0.00000000	          0.23812201	          0.04136528	         -0.26923720	         -0.35692875	         -0.39930824	         -0.31270410	         -1.53682573	         -1.35346778	          0.03535529	         -0.16583113	         -0.14801376	         -0.49961316	          0.35508524	         -0.33634661	         -0.40907352	         -0.09366635	         -0.28594623	          0.17483763	         -0.18211522	          0.14027861	          0.12181811	          0.31797836	          0.31214263	         -0.12066166	         -0.29265843	
          0.07000000	          0.00000000	          0.00000000	          0.00000000	          0.00000000	          0.00000000	          0.00000000	          0.00857054	          0.16888726	          0.29563905	         -0.30075051	         -0.14485950	          0.20629876	         -0.08390213	         -0.93299977	         -0.23500844	          0.26056161	          0.18663866	         -0.31862660	          0.11798659	          0.00534721	          0.03885899	          0.40447517	          0.14174055	          0.24928836	          0.42367786	         -0.21441942	         -0.01451434	          0.20501010	          0.09593654	          0.17299623	          0.25709685	
          0.08000000	          0.00000000	          0.00000000	          0.00000000	          0.00000000	          0.00000000	          0.00000000	         -0.25201929	          0.29926946	         -0.20497678	          0.28842654	          0.45895745	         -0.05609462	         -0.92447010	         -1.46939447	          0.38793357	          0.20079042	          0.40572050	         -0.24904307	          0.40478542	          0.13423050	          0.19880691	         -0.45972024	          0.22691179	          0.06695398	          0.41553609	          0.27763461	          0.04312261	         -0.10188796	          0.31679803	         -0.22217955	          0.45173762	
          0.09000000	          0.00000000	          0.00000000	          0.00000000	          0.00000000	          0.00000000	          0.00000000	         -0.53407404	         -0.42151115	          0.49581432	          0.40829939	          0.35861334	         -0.32327797	         -1.08369316	         -0.37866073	         -0.07122811	          0.44824557	         -0.34650873	          0.13568124	          0.77896747	          0.31588599	         -0.14564997	          0.11232699	         -0.14642777	         -0.07922149	         -0.35153050	         -0.15198403	          0.48525493	         -0.33397296	         -0.06820916	          0.01213146	         -0.09358100	
          0.10000000	          0.00000000	          0.00000000	          0.00000000	          0.00000000	          0.00000000	          0.00000000	         -0.50034225	          0.37478025	         -0.41098115	         -0.76512941	          0.15393263	         -0.18871457	         -0.56956095	         -0.31170088	         -0.15999575	         -0.31375673	         -0.28547699	          0.44720435	          0.14763133	          0.16742131	          0.30843983	         -0.30551924	          0.02619856	         -0.46222261	         -0.27883246	         -0.02522751	          0.33439536	          0.24429859	          0.18522434	          0.40900621	          0.09898197	
